<svg width="480px" height="298px" viewBox="0 0 424 264" xmlns="http://www.w3.org/2000/svg" fill-rule="evenodd" clip-rule="evenodd" stroke-linejoin="round" stroke-miterlimit="2"><g fill="#e90b8d" fill-rule="nonzero"><path d="M107.78 259.1l-1.3-3.14h-4.72l-1.28 3.14H99l4.88-11.8h.54l4.88 11.8h-1.52zm-3.08-7.55c-.19-.46-.39-1.06-.55-1.61h-.04c-.15.54-.34 1.08-.56 1.6l-1.28 3.22h3.7l-1.27-3.21zM124.14 259.1v-5.46c0-.96-.44-1.79-1.92-1.79-1.44 0-1.99.83-1.99 1.8v5.45h-1.42v-5.46c0-.96-.42-1.79-1.9-1.79-1.44 0-2 .83-2 1.8v5.45h-1.41v-8.27h1.3v1.1h.03a2.37 2.37 0 012.44-1.3c1.01-.07 1.98.44 2.49 1.32a3 3 0 012.68-1.32l.3-.01c1.54 0 2.81 1.26 2.81 2.8v5.68h-1.4zM136.22 259.3c-.67-.15-1.2-.7-1.31-1.38a2.26 2.26 0 01-2.28 1.39 2.5 2.5 0 01-2.65-2.5 2.69 2.69 0 012.7-2.6l2.07-.2v-.66c0-.87-.59-1.5-1.8-1.5-.78 0-1.56.22-2.22.64l-.3-1.16a4.72 4.72 0 012.6-.7l.31-.01c1.55 0 2.81 1.26 2.81 2.8v3.66c-.07.62.36 1.2.97 1.31l-.9.92zm-1.47-4.12l-1.78.16c-1.1.11-1.64.73-1.64 1.48a1.32 1.32 0 001.43 1.28h.03c1.07 0 1.96-.88 1.96-1.96V255.18zM140.75 259.1v-.29l2.76-4.52c.43-.72.97-1.63 1.4-2.29l-.01-.04h-3.86v-1.13h5.88v.3l-2.77 4.52-1.41 2.29.02.03h4.5v1.13h-6.51zM152.58 249.2a1.4 1.4 0 01-.9-.9c0-.5.41-.9.9-.9.5 0 .91.4.91.9-.13.43-.48.77-.91.9zm-.71 9.9v-8.27h1.42v8.27h-1.42zM164 259.1v-5.38-.03a1.86 1.86 0 00-2.11-1.84h-.23c-1.04 0-1.9.83-1.94 1.87v5.38h-1.4v-8.27h1.29v1.15h.02c.49-.95 1.54-1.5 2.6-1.35h.25c1.6 0 2.92 1.3 2.92 2.9V259.1H164zM173.5 263.32c-2.23 0-3.73-1.24-3.73-2.92a2.38 2.38 0 011.85-2.45l-.88-.87c.01-.66.49-1.22 1.13-1.34a2.54 2.54 0 01-1.5-2.33 2.83 2.83 0 013.08-2.78c.36 0 .72.05 1.07.15.36.1.73.14 1.1.13a2.9 2.9 0 001.24-.31l.27 1.16a2.5 2.5 0 01-1.15.26c.35.38.53.88.51 1.39a2.84 2.84 0 01-3.04 2.77c-.79 0-1.21.17-1.21.55 0 .15.15.33.42.42l2.23.79c1.42.5 2.26 1.26 2.26 2.7 0 1.53-1.48 2.68-3.65 2.68zm.95-4.2l-1.63-.49h-.03c-.94 0-1.72.78-1.72 1.72v.05c0 .9.84 1.74 2.4 1.74 1.53 0 2.35-.79 2.35-1.52 0-.7-.5-1.22-1.37-1.5zm-1-7.32h-.17c-.88 0-1.6.72-1.6 1.6a1.61 1.61 0 001.77 1.6 1.7 1.7 0 001.75-1.61 1.68 1.68 0 00-1.75-1.59zM191.37 259.2a5.43 5.43 0 01-3.01-.85l-.18-1.51a5.29 5.29 0 003.52 1.13c1.1 0 2.01-.87 2.06-1.97 0-1.17-.67-1.8-2.19-2.34-2.04-.7-3.07-1.7-3.07-3.32a3.11 3.11 0 013.5-3c.86-.01 1.71.22 2.46.66l-.3 1.2a4.17 4.17 0 00-2.44-.68c-.97 0-1.78.75-1.85 1.7 0 .96.64 1.54 2 2.02 2.02.73 3.32 1.64 3.32 3.63 0 2.01-1.43 3.33-3.82 3.33zM203.46 259.3a3.6 3.6 0 01-2.34-.78v4.8h-1.4v-12.49h1.33v.92h.01a3.03 3.03 0 012.56-1.12 4.36 4.36 0 014.05 4.33 4.36 4.36 0 01-4.21 4.35zm-.13-7.39c-.87-.02-1.7.38-2.21 1.08v4.2c.58.59 1.38.91 2.2.9a3.1 3.1 0 002.94-3.1c0-1.63-1.3-3-2.93-3.08zM219.27 254.41l-.77.79h-5.39a3.05 3.05 0 003.04 2.92h.14c.86.02 1.7-.23 2.41-.71l-.17 1.33c-.73.4-1.57.6-2.4.57h-.11a4.32 4.32 0 01-4.3-4.3v-.03-.18a4.19 4.19 0 014.3-4.18 3.32 3.32 0 013.3 3.19c0 .2-.02.4-.05.6zm-3.44-2.6a2.82 2.82 0 00-2.63 2.3h4.73c.02-.1.02-.18.02-.26a2.08 2.08 0 00-2.07-2.05h-.05zM230.91 254.41l-.77.79h-5.38a3.05 3.05 0 003.03 2.92h.15c.85.02 1.7-.23 2.4-.71l-.16 1.33c-.74.4-1.57.6-2.4.57h-.12a4.32 4.32 0 01-4.29-4.3v-.03-.18a4.19 4.19 0 014.3-4.18 3.32 3.32 0 013.3 3.19c0 .2-.02.4-.06.6zm-3.43-2.6a2.82 2.82 0 00-2.63 2.3h4.73c.02-.1.02-.18.02-.26a2.08 2.08 0 00-2.07-2.05h-.05zM241.65 259.1v-.9h-.02a3.03 3.03 0 01-2.56 1.1 4.36 4.36 0 01-4.05-4.33 4.36 4.36 0 014.22-4.34 3.6 3.6 0 012.33.79v-5.32h1.41v13h-1.33zm-.08-6.3a2.98 2.98 0 00-2.2-.89 3.1 3.1 0 00-2.94 3.09c0 1.63 1.3 3 2.93 3.08.87.02 1.7-.38 2.21-1.07v-4.2zM248.6 259.29a1 1 0 01-.99-1 1 1 0 011-1 1 1 0 011 1c-.16.47-.53.85-1.01 1zM269.3 259.1l-1.3-3.14h-4.72L262 259.1h-1.48l4.88-11.8h.54l4.88 11.8h-1.52zm-3.08-7.55c-.19-.46-.39-1.06-.55-1.61h-.04a15.2 15.2 0 01-.56 1.6l-1.28 3.22h3.7l-1.27-3.21zM285.66 259.1v-5.46c0-.96-.44-1.79-1.92-1.79-1.44 0-1.99.83-1.99 1.8v5.45h-1.42v-5.46c0-.96-.42-1.79-1.9-1.79-1.44 0-2 .83-2 1.8v5.45h-1.41v-8.27h1.31v1.1h.02a2.37 2.37 0 012.45-1.3c1-.07 1.97.44 2.48 1.32a3 3 0 012.68-1.32l.3-.01c1.54 0 2.8 1.26 2.8 2.8v5.68h-1.4zM297.74 259.3c-.67-.15-1.2-.7-1.31-1.38-.38.9-1.3 1.47-2.28 1.39H294a2.52 2.52 0 01-2.51-2.5 2.68 2.68 0 012.7-2.6l2.06-.2v-.66c0-.87-.58-1.5-1.79-1.5-.78 0-1.56.22-2.22.64l-.3-1.16a4.73 4.73 0 012.6-.7l.31-.01c1.54 0 2.81 1.26 2.81 2.8v3.66c-.07.62.36 1.2.97 1.31l-.9.92zm-1.48-4.12l-1.77.16c-1.1.11-1.64.73-1.64 1.48a1.32 1.32 0 001.42 1.28h.04c1.07 0 1.96-.88 1.96-1.96V255.18zM302.27 259.1v-.29l2.76-4.52c.43-.72.96-1.63 1.4-2.29l-.02-.04h-3.85v-1.13h5.88v.3l-2.77 4.52-1.41 2.29.02.03h4.49v1.13h-6.5zM314.1 249.2a1.4 1.4 0 01-.9-.9c0-.5.41-.9.9-.9.5 0 .91.4.91.9a1.4 1.4 0 01-.91.9zm-.71 9.9v-8.27h1.42v8.27h-1.42zM325.5 259.1v-5.38-.03a1.86 1.86 0 00-2.1-1.84 1.95 1.95 0 00-2.17 1.86v5.4h-1.4v-8.28h1.3v1.15h.01c.5-.95 1.55-1.5 2.62-1.35h.24c1.6 0 2.92 1.3 2.92 2.9V259.1h-1.41zM335.02 263.32c-2.23 0-3.73-1.24-3.73-2.92a2.38 2.38 0 011.85-2.45l-.88-.87c.01-.66.49-1.22 1.13-1.34a2.54 2.54 0 01-1.5-2.33 2.83 2.83 0 013.07-2.78c.37 0 .73.05 1.08.15.36.1.73.14 1.1.13a2.9 2.9 0 001.24-.31l.27 1.16a2.5 2.5 0 01-1.15.26c.35.38.53.88.51 1.39a2.84 2.84 0 01-3.05 2.77c-.78 0-1.2.17-1.2.55 0 .15.14.33.42.42l2.23.79c1.42.5 2.26 1.26 2.26 2.7 0 1.53-1.48 2.68-3.65 2.68zm.95-4.2l-1.63-.49h-.03a1.73 1.73 0 00-1.72 1.77c0 .9.84 1.74 2.4 1.74 1.53 0 2.35-.79 2.35-1.52 0-.7-.5-1.22-1.37-1.5zm-1-7.32h-.17c-.88 0-1.61.72-1.61 1.6a1.61 1.61 0 001.77 1.6 1.7 1.7 0 001.76-1.61 1.67 1.67 0 00-1.76-1.59zM352.89 259.2a5.42 5.42 0 01-3.01-.85l-.18-1.51a5.28 5.28 0 003.52 1.13c1.1 0 2.01-.87 2.06-1.97 0-1.17-.67-1.8-2.19-2.34-2.04-.7-3.07-1.7-3.07-3.32a3.11 3.11 0 013.5-3c.86-.01 1.71.22 2.46.66l-.3 1.2a4.17 4.17 0 00-2.45-.68c-.96 0-1.77.75-1.84 1.7 0 .96.64 1.54 2 2.02 2.02.73 3.32 1.64 3.32 3.63 0 2.01-1.43 3.33-3.82 3.33zM368.39 254.41l-.77.79h-5.38a3.05 3.05 0 003.03 2.92h.14c.86.02 1.7-.23 2.42-.71l-.17 1.33c-.74.4-1.57.6-2.41.57h-.1a4.32 4.32 0 01-4.3-4.3v-.03-.18a4.19 4.19 0 014.3-4.18 3.32 3.32 0 013.3 3.19c0 .2-.02.4-.06.6zm-3.43-2.6a2.82 2.82 0 00-2.63 2.3h4.73l.02-.26a2.08 2.08 0 00-2.07-2.05h-.05zM377.2 252.24c-.2-.06-.4-.09-.61-.1-1.19 0-2.36.72-2.36 2.76v4.2h-1.35v-8.27h1.35v1.81h.02a2.44 2.44 0 012.48-1.92c.27 0 .55.04.8.11l-.32 1.4zM384.91 259.27h-.57l-3.47-8.44h1.43l1.66 4.02c.24.58.5 1.33.71 2h.04c.22-.67.5-1.4.73-2l1.64-4.02h1.32l-3.49 8.44zM393.49 249.2a1.4 1.4 0 01-.9-.9c0-.5.41-.9.9-.9.5 0 .91.4.91.9a1.4 1.4 0 01-.91.9zm-.71 9.9v-8.27h1.42v8.27h-1.42zM405.54 252.59a4.05 4.05 0 00-2.23-.66h-.05a3.08 3.08 0 00-3.07 3.07 3.08 3.08 0 003.07 3.07h.07c.78 0 1.54-.18 2.23-.55l-.15 1.26c-.69.3-1.44.45-2.19.43h-.13a4.27 4.27 0 01-4.25-4.24 4.27 4.27 0 014.38-4.25c.9-.01 1.8.2 2.6.62l-.28 1.25zM417.1 254.41l-.77.79h-5.39a3.05 3.05 0 003.04 2.92h.14c.86.02 1.7-.23 2.41-.71l-.16 1.33c-.74.4-1.58.6-2.42.57h-.1a4.31 4.31 0 01-4.3-4.3v-.03-.18a4.19 4.19 0 014.3-4.18 3.32 3.32 0 013.3 3.19c0 .2-.01.4-.05.6zm-3.44-2.6a2.82 2.82 0 00-2.63 2.3h4.73c.02-.1.02-.18.02-.26a2.08 2.08 0 00-2.07-2.05h-.05zM422.3 259.29a1 1 0 01-1-1 1 1 0 011-1 1 1 0 011 1c-.15.47-.53.85-1 1z"/></g><g fill="#1d4c74"><path d="M123.7 230h-1.05l-4.6-13.37c-.68-2-1.43-4.07-2.18-6.7h-.08c-.75 2.63-1.47 4.7-2.15 6.7L109.01 230h-1.09l-8.47-24.4h3.12l4.1 11.9c.61 1.76 1.4 3.83 1.93 5.9h.07c.57-2.03 1.28-4.1 1.89-5.9l4.06-11.9h2.68l4.14 11.9c.6 1.76 1.24 3.87 1.8 5.9h.08c.53-2 1.32-4.14 1.92-5.9l4.15-11.9h2.82L123.7 230zM145.2 229.62v-24.03h12.72v2.67h-9.64v7.95h8.02v2.67h-8.02v8.06h11v2.68h-14.09zM179.16 229.62h-7.54v-24.03h6.66a6.3 6.3 0 016.26 6.14 4.69 4.69 0 01-2.45 4.33 6.64 6.64 0 014.79 6.33c0 4.74-3.92 7.23-7.72 7.23zm-1.7-21.47h-2.9v7.08h2.94c2.1 0 3.95-1.13 3.95-3.5s-1.8-3.58-3.99-3.58zm.98 9.57h-3.88v9.34h4c2.74 0 5.23-1.58 5.23-4.67 0-3.05-2.53-4.67-5.35-4.67zM224.75 229.8a11.2 11.2 0 01-6.22-1.73l-.37-3.12a10.9 10.9 0 006.7 2.3c2.82 0 4.82-1.62 4.82-4.03s-1.4-3.73-4.52-4.82c-4.22-1.44-6.32-3.5-6.32-6.86 0-3.12 2.33-6.18 7.19-6.18a9.58 9.58 0 015.08 1.36l-.6 2.49a8.6 8.6 0 00-4.56-1.4c-2.75 0-4.3 1.7-4.3 3.5 0 1.96 1.33 3.17 4.11 4.15 4.18 1.5 6.86 3.39 6.86 7.5 0 4.14-2.94 6.85-7.87 6.85zM246.28 229.62v-24.03h12.73v2.67h-9.64v7.95h8.02v2.67h-8.02v8.06h11v2.68h-14.09zM286.8 229.62l-7.76-10.77h-3.28v10.77h-3.05v-24.03h6.93c3.54 0 7.16 2.3 7.16 6.63a6.32 6.32 0 01-4.48 6.14l8.32 11.26h-3.84zm-7.68-21.36h-3.36v8.03h3.4c2.37 0 4.48-1.36 4.48-4 0-2.6-2.11-4.03-4.52-4.03zM309.54 230h-.98l-9.6-24.4h3.24l4.78 12.2c.71 1.8 1.5 4.06 2.18 6.13h.08a115.6 115.6 0 012.18-6.14l4.75-12.2h2.94l-9.57 24.4zM332.47 205.6h3.1v24.02h-3.1zM368.69 209.58a12.17 12.17 0 00-6.14-1.62c-5.08 0-9.98 3.5-9.98 9.68s4.82 9.68 9.98 9.68c2.2.09 4.37-.42 6.29-1.47l-.3 2.75a12.64 12.64 0 01-6.29 1.25c-6.25 0-12.65-4.49-12.65-12.25 0-7.83 6.47-12.23 12.61-12.23 2.45-.08 4.87.47 7.05 1.58l-.57 2.63zM382.92 229.62v-24.03h12.73v2.67H386v7.95h8.02v2.67H386v8.06h11v2.68h-14.1zM414.96 229.8a11.2 11.2 0 01-6.21-1.73l-.38-3.12a10.9 10.9 0 006.7 2.3c2.83 0 4.82-1.62 4.82-4.03s-1.39-3.73-4.52-4.82c-4.21-1.44-6.32-3.5-6.32-6.86 0-3.12 2.33-6.18 7.2-6.18a9.58 9.58 0 015.07 1.36l-.6 2.49a8.6 8.6 0 00-4.56-1.4c-2.74 0-4.29 1.7-4.29 3.5 0 1.96 1.32 3.17 4.1 4.15 4.19 1.5 6.86 3.39 6.86 7.5 0 4.14-2.94 6.85-7.87 6.85z" fill-rule="nonzero"/><path d="M207.14 157.43v24.35a9.73 9.73 0 009.65 9.65h35.58c27.15-.08 49.47-22.4 49.55-49.55v-8.03c-.08-27.16-22.4-49.47-49.55-49.55h-35.58a9.73 9.73 0 00-9.65 9.65v13.59c0 .03.03.06.06.06h15.86c.04 0 .06-.03.06-.06v-7.2c0-.03.03-.06.06-.06h29.2a33.83 33.83 0 0133.56 33.57v8.03a33.83 33.83 0 01-33.57 33.57h-29.19a.06.06 0 01-.06-.06v-17.96a.06.06 0 00-.06-.06H207.2a.06.06 0 00-.06.06z"/><path d="M373.75 84.2h-16.07l-42.86 107.2h12.87c1.42.03 2.8-.43 3.9-1.32a6.38 6.38 0 002.06-2.88l30.14-77.92a65.7 65.7 0 001.93-5.52 98.56 98.56 0 001.85 5.42l16.42 42.56 13.73 35.48a7.17 7.17 0 002.14 2.94 6.01 6.01 0 003.89 1.24h12.87L373.75 84.2zM140 114.34l7.8 7.12-.02.02 1.95 1.72 34.12-38.57h-14.8c-1.54-.04-3.06.25-4.47.85a9.54 9.54 0 00-3.49 2.94l-22.07 25.06.97.86zM143.34 139.96a18.98 18.98 0 00-3.35-3.54c-.32-.25-.6-.5-.9-.76-.93-.82-1.9-1.58-2.93-2.27l-.27-.14c-2.2-.8-4.44-1.5-6.71-2.06-3-.67-6.06-.97-9.13-.9h-4.15V84.62H99.27V191.4h16.63v-47.68h5.1c1.54-.1 3.09.12 4.55.64a7.54 7.54 0 012.68 2.25l35.86 41.3c.35.5.74.98 1.17 1.4a6.87 6.87 0 003.66 1.88c.86.15 1.72.22 2.6.2h15l-43.18-51.43z" fill-rule="nonzero"/></g><path d="M59.01 104c.15-5.72-1.08-9.97-3.7-12.78a46.4 46.4 0 00-4.98 17.2 49.11 49.11 0 007.8 21.37 39.72 39.72 0 01.88-25.8zm21.18-6.58c-17.27 18.17-19 34.18-5.19 48.05a48.89 48.89 0 0013.63 5.18c-17.67-10.5-17.26-23.98 1.22-40.43.6-6.1-3.63-11.7-9.66-12.8z" fill="url(#_Linear1)" transform="translate(-65.47 -65.47) scale(1.30933)"/><path d="M126.7 81.95l-10.45 7.57c-7.06 5.12 1.24 18.17 7.73 13.55l11.18-7.94c6.16-4.38-.99-18.6-8.47-13.18zm-36.86 28.27a134.2 134.2 0 0113.2-10.18c7.53-5.2 14.81 7.17 8.05 12.32-27.42 20.92-30.86 34.04-10.34 39.37-4.07.14-8.14-.22-12.12-1.08-17.67-10.5-17.26-23.98 1.22-40.43zm11.84-46.04c6.76-3.6 13.28 5.99 6.24 10.72C96.25 82.74 87 90.25 80.19 97.42c-17.27 18.17-19 34.18-5.19 48.05a49.1 49.1 0 01-16.87-15.68 39.72 39.72 0 01.88-25.8c5.51-14.36 19.73-27.64 42.67-39.81zM55.32 91.22c9.62-18.64 28.72-25.32 23.55-33.16a49.13 49.13 0 00-28.54 50.36 46.4 46.4 0 014.99-17.2zm40.34-41.06c2.47-.5 4.71.22 5 1.62.28 1.4-1.5 2.94-3.97 3.45-2.47.5-4.7-.22-5-1.62-.28-1.4 1.5-2.94 3.97-3.45z" fill="url(#_Linear2)" transform="translate(-65.47 -65.47) scale(1.30933)"/><defs><linearGradient id="_Linear1" x1="0" y1="0" x2="1" y2="0" gradientUnits="userSpaceOnUse" gradientTransform="scale(-36.4367) rotate(82.63 1.25 -3.17)"><stop offset="0" stop-color="#0d111f"/><stop offset="1" stop-color="#314d7f"/></linearGradient><linearGradient id="_Linear2" x1="0" y1="0" x2="1" y2="0" gradientUnits="userSpaceOnUse" gradientTransform="rotate(39.83 -79.3 133.88) scale(51.9172)"><stop offset="0" stop-color="#3a5ba9"/><stop offset=".53" stop-color="#8052a1"/><stop offset="1" stop-color="#e90b8d"/><stop offset="1" stop-color="#e90b8d"/></linearGradient></defs></svg>
